<svg fill="#000000" xmlns="http://www.w3.org/2000/svg" xmlns:xlink="http://www.w3.org/1999/xlink" version="1.1" x="0px" y="0px" viewBox="0 0 100 100" enable-background="new 0 0 100 100" xml:space="preserve"><path d="M42.727,53.087c-0.497,0-0.9-0.403-0.9-0.9c0-2.618-2.13-4.748-4.749-4.748s-4.748,2.13-4.748,4.748  c0,0.497-0.403,0.9-0.9,0.9s-0.9-0.403-0.9-0.9c0-3.61,2.938-6.548,6.548-6.548c3.611,0,6.548,2.938,6.548,6.548  C43.626,52.683,43.224,53.087,42.727,53.087z"/><path d="M68.378,53.087c-0.497,0-0.9-0.403-0.9-0.9c0-2.618-2.13-4.748-4.749-4.748c-2.618,0-4.747,2.13-4.747,4.748  c0,0.497-0.403,0.9-0.9,0.9s-0.9-0.403-0.9-0.9c0-3.61,2.938-6.548,6.548-6.548c3.611,0,6.55,2.938,6.55,6.548  C69.278,52.683,68.875,53.087,68.378,53.087z"/><path d="M49.537,66.927c-1.464,0-2.835-0.336-3.966-0.971c-0.433-0.244-0.587-0.792-0.344-1.226  c0.243-0.433,0.791-0.589,1.226-0.345c1.725,0.969,4.444,0.969,6.17,0c0.435-0.242,0.982-0.088,1.226,0.345  c0.243,0.434,0.089,0.982-0.345,1.226C52.373,66.591,51.001,66.927,49.537,66.927z"/><path d="M49.717,76.039c-13.856,0-18.611-7.357-18.806-7.671c-0.27-0.332-7.951-10.126-7.951-17.058c0-0.497,0.403-0.9,0.9-0.9  s0.9,0.403,0.9,0.9c0,6.312,7.544,15.927,7.621,16.022c0.099,0.147,4.545,6.905,17.337,6.905c12.808,0,17.465-6.774,17.511-6.843  c0.054-0.088,6.745-10.93,6.745-16.102c0-0.497,0.403-0.9,0.9-0.9s0.9,0.403,0.9,0.9c0,5.684-6.743,16.61-7.03,17.072  C68.526,68.697,63.561,76.039,49.717,76.039z"/><path d="M16.682,91.17c-0.497,0-0.9-0.403-0.9-0.9c0-5.719,15.225-6.79,18.277-6.946c2.212-0.215,3.66-0.782,4.386-1.732  c1.017-1.331,0.634-3.555,0.23-5.909c-0.107-0.625-0.216-1.259-0.304-1.894c-0.068-0.492,0.276-0.946,0.769-1.015  c0.496-0.07,0.947,0.276,1.015,0.769c0.085,0.615,0.19,1.229,0.294,1.835c0.473,2.752,0.919,5.352-0.573,7.307  c-1.046,1.37-2.906,2.166-5.684,2.434c-6.92,0.357-16.61,2.189-16.61,5.152C17.582,90.766,17.179,91.17,16.682,91.17z"/><path d="M82.394,91.17c-0.497,0-0.9-0.403-0.9-0.9c0-2.965-9.689-4.796-16.569-5.149c-2.824-0.271-4.694-1.075-5.758-2.46  c-1.532-1.996-1.068-4.778-0.62-7.469c0.095-0.566,0.19-1.14,0.27-1.713c0.068-0.492,0.516-0.84,1.015-0.769  c0.492,0.068,0.837,0.522,0.769,1.015c-0.081,0.59-0.18,1.18-0.276,1.763c-0.403,2.418-0.784,4.701,0.271,6.076  c0.743,0.968,2.203,1.544,4.462,1.763c3.013,0.153,18.238,1.225,18.238,6.943C83.294,90.766,82.891,91.17,82.394,91.17z"/><path d="M75.054,51.705c-0.497,0-0.9-0.403-0.9-0.9c0-0.497,0.403-0.9,0.9-0.9c1.827,0,3.313-1.486,3.313-3.313  s-1.486-3.314-3.313-3.314c-0.497,0-0.9-0.403-0.9-0.9s0.403-0.9,0.9-0.9c2.819,0,5.114,2.294,5.114,5.114  C80.168,49.411,77.873,51.705,75.054,51.705z"/><path d="M24.086,51.705c-2.819,0-5.113-2.294-5.113-5.113c0-2.82,2.294-5.114,5.113-5.114c0.497,0,0.9,0.403,0.9,0.9  s-0.403,0.9-0.9,0.9c-1.827,0-3.313,1.487-3.313,3.314s1.486,3.313,3.313,3.313c0.497,0,0.9,0.403,0.9,0.9  C24.986,51.302,24.583,51.705,24.086,51.705z"/><path d="M49.449,92.62c-11.682,0-12.916-8.935-12.927-9.024c-0.061-0.494,0.29-0.943,0.783-1.004  c0.49-0.053,0.941,0.289,1.003,0.781c0.043,0.324,1.108,7.446,11.141,7.446c3.274,0,5.769-0.88,7.414-2.615  c2.356-2.485,2.203-5.903,2.201-5.938c-0.026-0.496,0.354-0.92,0.851-0.946c0.487-0.03,0.92,0.354,0.946,0.851  c0.01,0.171,0.191,4.231-2.691,7.271C56.171,91.551,53.237,92.62,49.449,92.62z"/><path d="M75.079,40.727c-0.447,0-0.834-0.332-0.892-0.787c-0.031-0.233-0.826-5.78-6.412-7.457  c-6.605-1.981-8.452-7.038-8.527-7.252c-0.165-0.469,0.081-0.983,0.55-1.148c0.469-0.164,0.981,0.082,1.146,0.548  c0.07,0.194,1.664,4.423,7.349,6.128c6.727,2.018,7.645,8.671,7.68,8.954c0.062,0.493-0.286,0.944-0.779,1.006  C75.155,40.725,75.116,40.727,75.079,40.727z"/><path d="M42.062,35.915c-0.399,0-0.764-0.268-0.87-0.671c-0.127-0.48,0.16-0.973,0.641-1.099  c12.715-3.348,16.546-15.39,16.583-15.512c0.146-0.475,0.647-0.743,1.124-0.596c0.476,0.146,0.742,0.649,0.597,1.125  c-0.164,0.534-4.172,13.124-17.846,16.724C42.214,35.905,42.137,35.915,42.062,35.915z"/><path d="M41.438,33.519c-0.354,0-0.689-0.21-0.833-0.558c-0.189-0.459,0.03-0.986,0.489-1.175c4.021-1.656,4.795-7.168,4.802-7.224  c0.065-0.492,0.514-0.839,1.01-0.774c0.493,0.065,0.839,0.518,0.774,1.01c-0.036,0.269-0.928,6.604-5.901,8.652  C41.668,33.497,41.552,33.519,41.438,33.519z"/><path d="M23.938,40.119c-0.419,0-0.794-0.294-0.881-0.721c-0.099-0.487,0.215-0.962,0.702-1.062  c14.057-2.862,15.903-11.161,15.975-11.513c0.099-0.485,0.573-0.805,1.058-0.705c0.486,0.097,0.803,0.565,0.708,1.052  c-0.077,0.399-2.074,9.812-17.382,12.929C24.058,40.113,23.998,40.119,23.938,40.119z"/><path d="M19.97,42.133c-0.416,0-0.79-0.29-0.879-0.713l-2.712-12.776c-0.014-0.066-0.021-0.133-0.02-0.198  c-0.511-3.048-1.635-14.357,8.526-17.996c0.803-0.409,8.178-3.925,24.365-3.925c16.297,0,24.208,3.559,24.968,3.92  c10.176,3.635,9.05,14.953,8.539,18.002c0,0.065-0.006,0.131-0.021,0.197l-2.712,12.761c-0.104,0.487-0.583,0.795-1.067,0.693  c-0.485-0.104-0.739-0.581-0.636-1.067L81,28.691c0-0.004,0-0.007,0-0.011l-0.057,0c0.001-0.001-0.026-0.005-0.025-0.013  c0.017-0.104,0.025-0.206,0.047-0.3c0.175-0.927,0.604-3.787,0.068-6.954c-0.793-4.694-3.305-7.819-7.459-9.288  c-0.032-0.012-0.067-0.025-0.097-0.041C73.4,12.047,65.579,8.324,49.25,8.324c-16.374,0-23.511,3.709-23.581,3.747  c-0.04,0.021-0.081,0.04-0.124,0.055c-4.154,1.469-6.662,4.594-7.456,9.289c-0.536,3.169-0.099,6.033,0.076,6.957  c0.022,0.093,0.044,0.192,0.06,0.295c0.002,0.009,0.003,0.014,0.003,0.015l-0.001,0c0,0.004,0.001,0.008,0.001,0.012l2.623,12.353  c0.103,0.486-0.207,0.964-0.693,1.067C20.095,42.126,20.032,42.133,19.97,42.133z"/></svg>