<?xml version="1.0" encoding="UTF-8" standalone="no"?>
<svg
   xmlns:dc="http://purl.org/dc/elements/1.1/"
   xmlns:cc="http://creativecommons.org/ns#"
   xmlns:rdf="http://www.w3.org/1999/02/22-rdf-syntax-ns#"
   xmlns:svg="http://www.w3.org/2000/svg"
   xmlns="http://www.w3.org/2000/svg"
   xmlns:sodipodi="http://sodipodi.sourceforge.net/DTD/sodipodi-0.dtd"
   xmlns:inkscape="http://www.inkscape.org/namespaces/inkscape"
   fill="#000000"
   version="1.1"
   x="0px"
   y="0px"
   viewBox="0 0 100 100"
   id="svg2"
   inkscape:version="0.91 r13725"
   sodipodi:docname="logo.svg"
   inkscape:export-filename="/home/francisco/projects/docs/img/logo.png"
   inkscape:export-xdpi="225"
   inkscape:export-ydpi="225">
  <metadata
     id="metadata22">
    <rdf:RDF>
      <cc:Work
         rdf:about="">
        <dc:format>image/svg+xml</dc:format>
        <dc:type
           rdf:resource="http://purl.org/dc/dcmitype/StillImage" />
      </cc:Work>
    </rdf:RDF>
  </metadata>
  <defs
     id="defs20" />
  <sodipodi:namedview
     pagecolor="#ffffff"
     bordercolor="#666666"
     borderopacity="1"
     objecttolerance="10"
     gridtolerance="10"
     guidetolerance="10"
     inkscape:pageopacity="0"
     inkscape:pageshadow="2"
     inkscape:window-width="1920"
     inkscape:window-height="1050"
     id="namedview18"
     showgrid="false"
     inkscape:zoom="4.871965726"
     inkscape:cx="9.643629166"
     inkscape:cy="93.03758563"
     inkscape:window-x="0"
     inkscape:window-y="30"
     inkscape:window-maximized="1"
     inkscape:current-layer="g4" />
  <g
     transform="translate(0,-952.36218)"
     id="g4">
    <rect
       style="opacity:1;fill:#ffffff;fill-opacity:1;stroke:none;stroke-width:3;stroke-linecap:round;stroke-linejoin:round;stroke-miterlimit:4;stroke-dasharray:none;stroke-opacity:1"
       id="rect4195"
       width="95.17041779"
       height="95.31240845"
       x="2.556837559"
       y="955.0611572" />
    <path
       style="color:#000000;text-indent:0;text-transform:none;direction:ltr;block-progression:tb;baseline-shift:baseline;display:inline;overflow:visible;visibility:visible;fill:#000000;fill-opacity:1;fill-rule:evenodd;stroke:none;marker:none;enable-background:accumulate"
       d="m 2.024126267,952.362324 c -1.1048859128,0.1215794 -2.0307946255,1.1612375 -2.02409008278015,2.272725 l 0,95.454406 c 0,1.189999 1.08272683078015,2.272725 2.27272634478015,2.272725 l 20.312496361,0 75.14201477,0 c 1.18999951,0 2.27272634,-1.082726 2.27272634,-2.272725 l 0,-95.454406 c 0,-1.1899988 -1.08272683,-2.272725 -2.27272634,-2.272725 -33.35180457,-3.182e-4 -67.14872258,-1.14e-5 -95.703147393,0 z m 2.459222426,4.598717 8.883488207,0.017756 0.27521296,39.5722404 c -0.0113636,0.8702946 0.52886342,1.7229529 1.31897673,2.0881571 0.78999968,0.365216 1.78840836,0.2230679 2.44511264,-0.348102 l 9.83104961,-8.4607678 9.64595696,8.4607678 c 0.65670428,0.5711699 1.65511296,0.713318 2.44511264,0.348102 0.79011331,-0.3652042 1.32863582,-1.2178625 1.31897674,-2.0881571 l 0,-39.6432631 54.80731213,0 0,90.9089557 -90.811397545,0.0089 z m 15.045563347,-0.053267 15.2928566,0 0,30.8283689 -6.09310313,-5.6062544 c -0.81840876,-0.711772 -2.16454457,-0.711772 -2.98295333,0 l -6.21680014,5.6062544 z"
       visibility="visible"
       display="inline"
       overflow="visible"
       id="path6"
       inkscape:connector-curvature="0"
       sodipodi:nodetypes="ccsscsssscccccccccccccccccccccc" />
    <path
       style="color:#000000;text-indent:0;text-transform:none;direction:ltr;block-progression:tb;baseline-shift:baseline;display:inline;overflow:visible;visibility:visible;fill:#000000;fill-opacity:1;fill-rule:evenodd;stroke:none;marker:none;enable-background:accumulate"
       d="m 52.15081972,988.2487773 a 2.920061037,4.041545735 0 1 0 0,8.0824443 l 28.9422586,0 a 2.920061037,4.041545735 0 1 0 0,-8.0824443 l -28.9422586,0 z"
       visibility="visible"
       display="inline"
       overflow="visible"
       id="path8"
       inkscape:connector-curvature="0" />
    <path
       style="color:#000000;text-indent:0;text-transform:none;direction:ltr;block-progression:tb;baseline-shift:baseline;display:inline;overflow:visible;visibility:visible;fill:#000000;fill-opacity:1;fill-rule:evenodd;stroke:none;marker:none;enable-background:accumulate"
       d="m 52.15081972,967.1838522 a 2.920061037,4.041545735 0 1 0 0,8.0824449 l 28.9422586,0 a 2.920061037,4.041545735 0 1 0 0,-8.0824449 l -28.9422586,0 z"
       visibility="visible"
       display="inline"
       overflow="visible"
       id="path10"
       inkscape:connector-curvature="0" />
    <path
       style="color:#000000;text-indent:0;text-transform:none;direction:ltr;block-progression:tb;baseline-shift:baseline;display:inline;overflow:visible;visibility:visible;fill:#000000;fill-opacity:1;fill-rule:evenodd;stroke:none;marker:none;enable-background:accumulate"
       d="m 17.10973688,1009.438004 a 2.920061037,4.041545735 0 1 0 0,8.082466 l 63.98334144,0 a 2.920061037,4.041545735 0 1 0 0,-8.082466 l -63.98334144,0 z"
       visibility="visible"
       display="inline"
       overflow="visible"
       id="path14"
       inkscape:connector-curvature="0" />
    <path
       style="color:#000000;text-indent:0;text-transform:none;direction:ltr;block-progression:tb;baseline-shift:baseline;display:inline;overflow:visible;visibility:visible;fill:#000000;fill-opacity:1;fill-rule:evenodd;stroke:none;marker:none;enable-background:accumulate"
       d="m 17.10973688,1029.707678 a 2.920061037,4.041545735 0 1 0 0,8.081861 l 63.98334144,0 a 2.920061037,4.041545735 0 1 0 0,-8.081861 l -63.98334144,0 z"
       visibility="visible"
       display="inline"
       overflow="visible"
       id="path16"
       inkscape:connector-curvature="0" />
  </g>
</svg>
