<?xml version="1.0" encoding="UTF-8" standalone="no"?>
<svg
   xmlns:dc="http://purl.org/dc/elements/1.1/"
   xmlns:cc="http://creativecommons.org/ns#"
   xmlns:rdf="http://www.w3.org/1999/02/22-rdf-syntax-ns#"
   xmlns:svg="http://www.w3.org/2000/svg"
   xmlns="http://www.w3.org/2000/svg"
   xmlns:sodipodi="http://sodipodi.sourceforge.net/DTD/sodipodi-0.dtd"
   xmlns:inkscape="http://www.inkscape.org/namespaces/inkscape"
   fill="#000000"
   version="1.1"
   x="0px"
   y="0px"
   viewBox="0 0 100 100"
   enable-background="new 0 0 100 100"
   xml:space="preserve"
   id="svg2"
   inkscape:version="0.91 r13725"
   sodipodi:docname="typewriter.svg"><metadata
     id="metadata48"><rdf:RDF><cc:Work
         rdf:about=""><dc:format>image/svg+xml</dc:format><dc:type
           rdf:resource="http://purl.org/dc/dcmitype/StillImage" /></cc:Work></rdf:RDF></metadata><defs
     id="defs46" /><sodipodi:namedview
     pagecolor="#ffffff"
     bordercolor="#666666"
     borderopacity="1"
     objecttolerance="10"
     gridtolerance="10"
     guidetolerance="10"
     inkscape:pageopacity="0"
     inkscape:pageshadow="2"
     inkscape:window-width="1920"
     inkscape:window-height="1050"
     id="namedview44"
     showgrid="false"
     inkscape:zoom="2.36"
     inkscape:cx="-32.83898305"
     inkscape:cy="50"
     inkscape:window-x="0"
     inkscape:window-y="30"
     inkscape:window-maximized="1"
     inkscape:current-layer="svg2" /><g
     id="g4"
     transform="matrix(1.492537313,0,0,1.492537815,-24.62686566,-26.89556303)"><path
       d="m 81,41.5 -7.5,0 0,-20 -47,0 0,20 -7.5,0 0,2.5 -2.5,0 0,9.5 2.5,0 0,3.917 L 16.514,72.335 16.5,81 l 67,0 0,-8.5 -2.5,-15.083 0,-3.917 2.5,0 0,-9.5 -2.5,0 0,-2.5 z m -9.5,-18 0,23 -12.118,0 -0.276,0.553 C 59.083,47.097 56.803,51.5 50,51.5 c -6.741,0 -9.015,-4.271 -9.105,-4.447 l -0.277,-0.553 -12.118,0 0,-23 43,0 z m -53,28 0,-5.5 0.5,0 0,5.5 -0.5,0 z m 63,21.083 0,6.417 -63,0 0,-6.417 2.347,-14.083 58.319,0 2.334,14.083 z M 79,56.5 l -58,0 0,-3 0,-9.5 0,-0.5 5.5,0 0,3 -1.5,0 0,2 14.436,0 c 0.939,1.411 3.976,5 10.564,5 6.588,0 9.625,-3.589 10.564,-5 l 14.436,0 0,-2 -1.5,0 0,-3 5.5,0 0,0.5 0,9.5 0,3 z m 2.5,-10.5 0,5.5 -0.5,0 0,-5.5 0.5,0 z"
       id="path6"
       inkscape:connector-curvature="0" /><path
       d="m 27.5,61.5 c -1.93,0 -3.5,1.57 -3.5,3.5 0,1.93 1.57,3.5 3.5,3.5 1.93,0 3.5,-1.57 3.5,-3.5 0,-1.93 -1.57,-3.5 -3.5,-3.5 z m 0,5 C 26.673,66.5 26,65.827 26,65 c 0,-0.827 0.673,-1.5 1.5,-1.5 0.827,0 1.5,0.673 1.5,1.5 0,0.827 -0.673,1.5 -1.5,1.5 z"
       id="path8"
       inkscape:connector-curvature="0" /><path
       d="m 35,61.5 c -1.93,0 -3.5,1.57 -3.5,3.5 0,1.93 1.57,3.5 3.5,3.5 1.93,0 3.5,-1.57 3.5,-3.5 0,-1.93 -1.57,-3.5 -3.5,-3.5 z m 0,5 c -0.827,0 -1.5,-0.673 -1.5,-1.5 0,-0.827 0.673,-1.5 1.5,-1.5 0.827,0 1.5,0.673 1.5,1.5 0,0.827 -0.673,1.5 -1.5,1.5 z"
       id="path10"
       inkscape:connector-curvature="0" /><path
       d="m 42.5,68.5 c 1.93,0 3.5,-1.57 3.5,-3.5 0,-1.93 -1.57,-3.5 -3.5,-3.5 -1.93,0 -3.5,1.57 -3.5,3.5 0,1.93 1.57,3.5 3.5,3.5 z m 0,-5 c 0.827,0 1.5,0.673 1.5,1.5 0,0.827 -0.673,1.5 -1.5,1.5 -0.827,0 -1.5,-0.673 -1.5,-1.5 0,-0.827 0.673,-1.5 1.5,-1.5 z"
       id="path12"
       inkscape:connector-curvature="0" /><path
       d="m 50,68.5 c 1.93,0 3.5,-1.57 3.5,-3.5 0,-1.93 -1.57,-3.5 -3.5,-3.5 -1.93,0 -3.5,1.57 -3.5,3.5 0,1.93 1.57,3.5 3.5,3.5 z m 0,-5 c 0.827,0 1.5,0.673 1.5,1.5 0,0.827 -0.673,1.5 -1.5,1.5 -0.827,0 -1.5,-0.673 -1.5,-1.5 0,-0.827 0.673,-1.5 1.5,-1.5 z"
       id="path14"
       inkscape:connector-curvature="0" /><path
       d="m 57.5,61.5 c -1.93,0 -3.5,1.57 -3.5,3.5 0,1.93 1.57,3.5 3.5,3.5 1.93,0 3.5,-1.57 3.5,-3.5 0,-1.93 -1.57,-3.5 -3.5,-3.5 z m 0,5 C 56.673,66.5 56,65.827 56,65 c 0,-0.827 0.673,-1.5 1.5,-1.5 0.827,0 1.5,0.673 1.5,1.5 0,0.827 -0.673,1.5 -1.5,1.5 z"
       id="path16"
       inkscape:connector-curvature="0" /><path
       d="m 65,61.5 c -1.93,0 -3.5,1.57 -3.5,3.5 0,1.93 1.57,3.5 3.5,3.5 1.93,0 3.5,-1.57 3.5,-3.5 0,-1.93 -1.57,-3.5 -3.5,-3.5 z m 0,5 c -0.827,0 -1.5,-0.673 -1.5,-1.5 0,-0.827 0.673,-1.5 1.5,-1.5 0.827,0 1.5,0.673 1.5,1.5 0,0.827 -0.673,1.5 -1.5,1.5 z"
       id="path18"
       inkscape:connector-curvature="0" /><path
       d="m 72.5,61.5 c -1.93,0 -3.5,1.57 -3.5,3.5 0,1.93 1.57,3.5 3.5,3.5 1.93,0 3.5,-1.57 3.5,-3.5 0,-1.93 -1.57,-3.5 -3.5,-3.5 z m 0,5 C 71.673,66.5 71,65.827 71,65 c 0,-0.827 0.673,-1.5 1.5,-1.5 0.827,0 1.5,0.673 1.5,1.5 0,0.827 -0.673,1.5 -1.5,1.5 z"
       id="path20"
       inkscape:connector-curvature="0" /><path
       d="M 27.5,69 C 25.57,69 24,70.57 24,72.5 24,74.43 25.57,76 27.5,76 29.43,76 31,74.43 31,72.5 31,70.57 29.43,69 27.5,69 Z m 0,5 C 26.673,74 26,73.327 26,72.5 26,71.673 26.673,71 27.5,71 c 0.827,0 1.5,0.673 1.5,1.5 0,0.827 -0.673,1.5 -1.5,1.5 z"
       id="path22"
       inkscape:connector-curvature="0" /><path
       d="m 35,69 c -1.93,0 -3.5,1.57 -3.5,3.5 0,1.93 1.57,3.5 3.5,3.5 1.93,0 3.5,-1.57 3.5,-3.5 C 38.5,70.57 36.93,69 35,69 Z m 0,5 c -0.827,0 -1.5,-0.673 -1.5,-1.5 0,-0.827 0.673,-1.5 1.5,-1.5 0.827,0 1.5,0.673 1.5,1.5 0,0.827 -0.673,1.5 -1.5,1.5 z"
       id="path24"
       inkscape:connector-curvature="0" /><path
       d="m 57.5,69 -15,0 c -1.93,0 -3.5,1.57 -3.5,3.5 0,1.93 1.57,3.5 3.5,3.5 l 15,0 C 59.43,76 61,74.43 61,72.5 61,70.57 59.43,69 57.5,69 Z m 0,5 -15,0 C 41.673,74 41,73.327 41,72.5 41,71.673 41.673,71 42.5,71 l 15,0 c 0.827,0 1.5,0.673 1.5,1.5 0,0.827 -0.673,1.5 -1.5,1.5 z"
       id="path26"
       inkscape:connector-curvature="0" /><path
       d="m 65,69 c -1.93,0 -3.5,1.57 -3.5,3.5 0,1.93 1.57,3.5 3.5,3.5 1.93,0 3.5,-1.57 3.5,-3.5 C 68.5,70.57 66.93,69 65,69 Z m 0,5 c -0.827,0 -1.5,-0.673 -1.5,-1.5 0,-0.827 0.673,-1.5 1.5,-1.5 0.827,0 1.5,0.673 1.5,1.5 0,0.827 -0.673,1.5 -1.5,1.5 z"
       id="path28"
       inkscape:connector-curvature="0" /><path
       d="M 72.5,69 C 70.57,69 69,70.57 69,72.5 69,74.43 70.57,76 72.5,76 74.43,76 76,74.43 76,72.5 76,70.57 74.43,69 72.5,69 Z m 0,5 C 71.673,74 71,73.327 71,72.5 71,71.673 71.673,71 72.5,71 c 0.827,0 1.5,0.673 1.5,1.5 0,0.827 -0.673,1.5 -1.5,1.5 z"
       id="path30"
       inkscape:connector-curvature="0" /><rect
       x="32.5"
       y="26.5"
       width="25"
       height="2"
       id="rect32" /><rect
       x="32.5"
       y="31.5"
       width="35"
       height="2"
       id="rect34" /><rect
       x="32.5"
       y="36.5"
       width="7.5"
       height="2"
       id="rect36" /><rect
       x="32.5"
       y="41.5"
       width="17.5"
       height="2"
       id="rect38" /><rect
       x="42.5"
       y="36.5"
       width="25"
       height="2"
       id="rect40" /><rect
       x="60"
       y="26.5"
       width="7.5"
       height="2"
       id="rect42" /></g></svg>